<mxfile host="app.diagrams.net" modified="2023-06-06T14:32:18.556Z" agent="Mozilla/5.0 (X11; Ubuntu; Linux x86_64; rv:109.0) Gecko/20100101 Firefox/113.0" version="21.3.7" etag="KaAHnCiTSsyyCJmb0rTO" type="github">
  <diagram name="Page-1" id="p0MUOt4f19y32o7VEarx">
    <mxGraphModel>
      <root>
        <mxCell id="0" />
        <mxCell id="1" parent="0" />
      </root>
    </mxGraphModel>
  </diagram>
</mxfile>
